<mxfile host="app.diagrams.net" modified="2024-02-19T15:02:21.810Z" agent="Mozilla/5.0 (Windows NT 10.0; Win64; x64) AppleWebKit/537.36 (KHTML, like Gecko) Chrome/121.0.0.0 Safari/537.36" etag="-pzorNWNluOvB8eiInhE" version="23.1.5" type="github">
  <diagram id="C5RBs43oDa-KdzZeNtuy" name="Page-1">
    <mxGraphModel dx="1674" dy="780" grid="1" gridSize="10" guides="1" tooltips="1" connect="1" arrows="1" fold="1" page="1" pageScale="1" pageWidth="827" pageHeight="1169" math="0" shadow="0">
      <root>
        <mxCell id="WIyWlLk6GJQsqaUBKTNV-0" />
        <mxCell id="WIyWlLk6GJQsqaUBKTNV-1" parent="WIyWlLk6GJQsqaUBKTNV-0" />
        <mxCell id="O0ZrL713fTO7kegesCP9-48" style="edgeStyle=orthogonalEdgeStyle;rounded=0;orthogonalLoop=1;jettySize=auto;html=1;exitX=0.5;exitY=1;exitDx=0;exitDy=0;entryX=0.5;entryY=0;entryDx=0;entryDy=0;" edge="1" parent="WIyWlLk6GJQsqaUBKTNV-1" source="O0ZrL713fTO7kegesCP9-4" target="O0ZrL713fTO7kegesCP9-32">
          <mxGeometry relative="1" as="geometry" />
        </mxCell>
        <mxCell id="O0ZrL713fTO7kegesCP9-4" value="&lt;font face=&quot;Tahoma&quot; style=&quot;font-size: 18px;&quot;&gt;กำหนดตัวแปร&lt;br&gt;i = 1&lt;br&gt;&lt;/font&gt;" style="rounded=0;whiteSpace=wrap;html=1;" vertex="1" parent="WIyWlLk6GJQsqaUBKTNV-1">
          <mxGeometry x="317.25" y="230" width="193.5" height="70" as="geometry" />
        </mxCell>
        <mxCell id="O0ZrL713fTO7kegesCP9-66" style="edgeStyle=orthogonalEdgeStyle;rounded=0;orthogonalLoop=1;jettySize=auto;html=1;exitX=1;exitY=0.5;exitDx=0;exitDy=0;exitPerimeter=0;entryX=0;entryY=0.5;entryDx=0;entryDy=0;" edge="1" parent="WIyWlLk6GJQsqaUBKTNV-1" source="O0ZrL713fTO7kegesCP9-5" target="O0ZrL713fTO7kegesCP9-56">
          <mxGeometry relative="1" as="geometry" />
        </mxCell>
        <mxCell id="O0ZrL713fTO7kegesCP9-5" value="&lt;font face=&quot;Tahoma&quot;&gt;&lt;span style=&quot;font-size: 14px;&quot;&gt;แสดงเลขคู่ (i)&lt;br&gt;&lt;/span&gt;&lt;/font&gt;" style="strokeWidth=2;html=1;shape=mxgraph.flowchart.display;whiteSpace=wrap;" vertex="1" parent="WIyWlLk6GJQsqaUBKTNV-1">
          <mxGeometry x="338.25" y="760" width="150" height="80" as="geometry" />
        </mxCell>
        <mxCell id="O0ZrL713fTO7kegesCP9-8" style="edgeStyle=orthogonalEdgeStyle;rounded=0;orthogonalLoop=1;jettySize=auto;html=1;exitX=0.5;exitY=1;exitDx=0;exitDy=0;exitPerimeter=0;" edge="1" parent="WIyWlLk6GJQsqaUBKTNV-1" source="O0ZrL713fTO7kegesCP9-9" target="O0ZrL713fTO7kegesCP9-4">
          <mxGeometry relative="1" as="geometry" />
        </mxCell>
        <mxCell id="O0ZrL713fTO7kegesCP9-9" value="&lt;font face=&quot;Tahoma&quot; style=&quot;font-size: 18px;&quot;&gt;เริ่มต้นโปรแกรม&lt;/font&gt;" style="strokeWidth=2;html=1;shape=mxgraph.flowchart.terminator;whiteSpace=wrap;" vertex="1" parent="WIyWlLk6GJQsqaUBKTNV-1">
          <mxGeometry x="334" y="80" width="160" height="80" as="geometry" />
        </mxCell>
        <mxCell id="O0ZrL713fTO7kegesCP9-10" value="&lt;font face=&quot;Tahoma&quot;&gt;&lt;span style=&quot;font-size: 18px;&quot;&gt;สิ้นสุดการทำงาน&lt;/span&gt;&lt;/font&gt;" style="strokeWidth=2;html=1;shape=mxgraph.flowchart.terminator;whiteSpace=wrap;" vertex="1" parent="WIyWlLk6GJQsqaUBKTNV-1">
          <mxGeometry x="333.25" y="960" width="160" height="80" as="geometry" />
        </mxCell>
        <mxCell id="O0ZrL713fTO7kegesCP9-59" style="edgeStyle=orthogonalEdgeStyle;rounded=0;orthogonalLoop=1;jettySize=auto;html=1;exitX=0;exitY=0.5;exitDx=0;exitDy=0;entryX=0.5;entryY=0;entryDx=0;entryDy=0;" edge="1" parent="WIyWlLk6GJQsqaUBKTNV-1" source="O0ZrL713fTO7kegesCP9-32" target="O0ZrL713fTO7kegesCP9-39">
          <mxGeometry relative="1" as="geometry" />
        </mxCell>
        <mxCell id="O0ZrL713fTO7kegesCP9-32" value="" style="ellipse;whiteSpace=wrap;html=1;aspect=fixed;" vertex="1" parent="WIyWlLk6GJQsqaUBKTNV-1">
          <mxGeometry x="394" y="380" width="40" height="40" as="geometry" />
        </mxCell>
        <mxCell id="O0ZrL713fTO7kegesCP9-50" style="edgeStyle=orthogonalEdgeStyle;rounded=0;orthogonalLoop=1;jettySize=auto;html=1;exitX=0.5;exitY=1;exitDx=0;exitDy=0;" edge="1" parent="WIyWlLk6GJQsqaUBKTNV-1" source="O0ZrL713fTO7kegesCP9-39" target="O0ZrL713fTO7kegesCP9-10">
          <mxGeometry relative="1" as="geometry">
            <Array as="points">
              <mxPoint x="198" y="1000" />
            </Array>
          </mxGeometry>
        </mxCell>
        <mxCell id="O0ZrL713fTO7kegesCP9-51" value="NO" style="edgeLabel;html=1;align=center;verticalAlign=middle;resizable=0;points=[];" vertex="1" connectable="0" parent="O0ZrL713fTO7kegesCP9-50">
          <mxGeometry x="-0.135" y="-2" relative="1" as="geometry">
            <mxPoint as="offset" />
          </mxGeometry>
        </mxCell>
        <mxCell id="O0ZrL713fTO7kegesCP9-52" style="edgeStyle=orthogonalEdgeStyle;rounded=0;orthogonalLoop=1;jettySize=auto;html=1;exitX=1;exitY=0.5;exitDx=0;exitDy=0;entryX=0;entryY=0.5;entryDx=0;entryDy=0;" edge="1" parent="WIyWlLk6GJQsqaUBKTNV-1" source="O0ZrL713fTO7kegesCP9-39" target="O0ZrL713fTO7kegesCP9-43">
          <mxGeometry relative="1" as="geometry" />
        </mxCell>
        <mxCell id="O0ZrL713fTO7kegesCP9-53" value="YES" style="edgeLabel;html=1;align=center;verticalAlign=middle;resizable=0;points=[];" vertex="1" connectable="0" parent="O0ZrL713fTO7kegesCP9-52">
          <mxGeometry x="-0.1563" y="-1" relative="1" as="geometry">
            <mxPoint as="offset" />
          </mxGeometry>
        </mxCell>
        <mxCell id="O0ZrL713fTO7kegesCP9-39" value="&lt;font face=&quot;Tahoma&quot;&gt;&lt;span style=&quot;font-size: 18px;&quot;&gt;i &amp;lt;= 20&lt;/span&gt;&lt;/font&gt;" style="rhombus;whiteSpace=wrap;html=1;" vertex="1" parent="WIyWlLk6GJQsqaUBKTNV-1">
          <mxGeometry x="135.25" y="520" width="124.75" height="90" as="geometry" />
        </mxCell>
        <mxCell id="O0ZrL713fTO7kegesCP9-54" style="edgeStyle=orthogonalEdgeStyle;rounded=0;orthogonalLoop=1;jettySize=auto;html=1;exitX=0.5;exitY=1;exitDx=0;exitDy=0;" edge="1" parent="WIyWlLk6GJQsqaUBKTNV-1" source="O0ZrL713fTO7kegesCP9-43" target="O0ZrL713fTO7kegesCP9-5">
          <mxGeometry relative="1" as="geometry" />
        </mxCell>
        <mxCell id="O0ZrL713fTO7kegesCP9-55" value="YES" style="edgeLabel;html=1;align=center;verticalAlign=middle;resizable=0;points=[];" vertex="1" connectable="0" parent="O0ZrL713fTO7kegesCP9-54">
          <mxGeometry x="0.0452" y="2" relative="1" as="geometry">
            <mxPoint as="offset" />
          </mxGeometry>
        </mxCell>
        <mxCell id="O0ZrL713fTO7kegesCP9-62" style="edgeStyle=orthogonalEdgeStyle;rounded=0;orthogonalLoop=1;jettySize=auto;html=1;exitX=0.5;exitY=0;exitDx=0;exitDy=0;entryX=0.5;entryY=1;entryDx=0;entryDy=0;" edge="1" parent="WIyWlLk6GJQsqaUBKTNV-1" source="O0ZrL713fTO7kegesCP9-43" target="O0ZrL713fTO7kegesCP9-32">
          <mxGeometry relative="1" as="geometry" />
        </mxCell>
        <mxCell id="O0ZrL713fTO7kegesCP9-63" value="NO" style="edgeLabel;html=1;align=center;verticalAlign=middle;resizable=0;points=[];" vertex="1" connectable="0" parent="O0ZrL713fTO7kegesCP9-62">
          <mxGeometry x="-0.0803" y="1" relative="1" as="geometry">
            <mxPoint as="offset" />
          </mxGeometry>
        </mxCell>
        <mxCell id="O0ZrL713fTO7kegesCP9-43" value="&lt;font face=&quot;Tahoma&quot;&gt;&lt;span style=&quot;font-size: 18px;&quot;&gt;i %2 != 0&lt;/span&gt;&lt;/font&gt;" style="rhombus;whiteSpace=wrap;html=1;" vertex="1" parent="WIyWlLk6GJQsqaUBKTNV-1">
          <mxGeometry x="349" y="515" width="130" height="100" as="geometry" />
        </mxCell>
        <mxCell id="O0ZrL713fTO7kegesCP9-67" style="edgeStyle=orthogonalEdgeStyle;rounded=0;orthogonalLoop=1;jettySize=auto;html=1;exitX=0.5;exitY=0;exitDx=0;exitDy=0;entryX=1;entryY=0.5;entryDx=0;entryDy=0;" edge="1" parent="WIyWlLk6GJQsqaUBKTNV-1" source="O0ZrL713fTO7kegesCP9-56" target="O0ZrL713fTO7kegesCP9-32">
          <mxGeometry relative="1" as="geometry" />
        </mxCell>
        <mxCell id="O0ZrL713fTO7kegesCP9-56" value="&lt;font style=&quot;font-size: 18px;&quot; face=&quot;Tahoma&quot;&gt;i++&lt;/font&gt;" style="rounded=0;whiteSpace=wrap;html=1;" vertex="1" parent="WIyWlLk6GJQsqaUBKTNV-1">
          <mxGeometry x="570" y="770" width="120" height="60" as="geometry" />
        </mxCell>
      </root>
    </mxGraphModel>
  </diagram>
</mxfile>
